<mxfile modified="2022-10-26T08:37:44.765Z" host="Electron" agent="5.0 (Windows NT 10.0; Win64; x64) AppleWebKit/537.36 (KHTML, like Gecko) draw.io/20.3.0 Chrome/104.0.5112.114 Electron/20.1.3 Safari/537.36" etag="DqGeMO8mk5DguKu_qSit" compressed="false" version="20.3.0" type="device">
  <diagram id="4bgXXZZWLKDrS-0fqXVA" name="Functionality/System Logical Module/Provisioning">
    <mxGraphModel dx="782" dy="549" grid="1" gridSize="10" guides="1" tooltips="1" connect="1" arrows="1" fold="1" page="1" pageScale="1" pageWidth="827" pageHeight="1169" math="0" shadow="0">
      <root>
        <mxCell id="vj9NFNpsctyDdZJHX6hg-0" />
        <mxCell id="wERdTFQBSSwt_41Hwb2m-4" value="Diagram/Use Cases" parent="vj9NFNpsctyDdZJHX6hg-0" />
        <mxCell id="3bvs2r6w8-1A-JgL-3PP-0" value="&amp;lt;&amp;lt;actor&amp;gt;&amp;gt;&lt;br&gt;&lt;b&gt;Authorised&lt;br&gt;User&lt;br&gt;&lt;/b&gt;" style="text;html=1;align=center;verticalAlign=middle;dashed=0;fillColor=#ffffff;strokeColor=#000000;" parent="wERdTFQBSSwt_41Hwb2m-4" vertex="1">
          <mxGeometry x="120" y="200" width="80" height="40" as="geometry" />
        </mxCell>
        <mxCell id="3bvs2r6w8-1A-JgL-3PP-7" value="" style="fontStyle=1;align=left;verticalAlign=top;childLayout=stackLayout;horizontal=1;horizontalStack=0;resizeParent=1;resizeParentMax=0;resizeLast=0;marginBottom=0;" parent="wERdTFQBSSwt_41Hwb2m-4" vertex="1">
          <mxGeometry x="240" y="200" width="120" height="40" as="geometry" />
        </mxCell>
        <mxCell id="3bvs2r6w8-1A-JgL-3PP-8" value="&lt;p style=&quot;line-height: 0.9;&quot;&gt;View &lt;br&gt;Security Profile&lt;/p&gt;" style="html=1;align=left;spacingLeft=4;verticalAlign=middle;strokeColor=none;fillColor=none;fontStyle=1;spacingTop=2;" parent="3bvs2r6w8-1A-JgL-3PP-7" vertex="1">
          <mxGeometry width="120" height="20" as="geometry" />
        </mxCell>
        <mxCell id="3bvs2r6w8-1A-JgL-3PP-9" value="" style="shape=ellipse;" parent="3bvs2r6w8-1A-JgL-3PP-8" vertex="1">
          <mxGeometry x="1" width="20" height="10" relative="1" as="geometry">
            <mxPoint x="-25" y="5" as="offset" />
          </mxGeometry>
        </mxCell>
        <mxCell id="3bvs2r6w8-1A-JgL-3PP-10" value="" style="line;strokeWidth=1;fillColor=none;align=left;verticalAlign=middle;spacingTop=-1;spacingLeft=3;spacingRight=3;rotatable=0;labelPosition=right;points=[];portConstraint=eastwest;" parent="3bvs2r6w8-1A-JgL-3PP-7" vertex="1">
          <mxGeometry y="20" width="120" height="8" as="geometry" />
        </mxCell>
        <mxCell id="3bvs2r6w8-1A-JgL-3PP-11" value="..." style="html=1;align=left;spacingLeft=4;verticalAlign=top;strokeColor=none;fillColor=none;fontSize=8;spacing=-2;" parent="3bvs2r6w8-1A-JgL-3PP-7" vertex="1">
          <mxGeometry y="28" width="120" height="12" as="geometry" />
        </mxCell>
        <mxCell id="3bvs2r6w8-1A-JgL-3PP-17" value="" style="endArrow=open;endFill=1;endSize=12;html=1;strokeColor=#000000;fontSize=12;entryX=0;entryY=1;entryDx=0;entryDy=0;exitX=1;exitY=0.5;exitDx=0;exitDy=0;" parent="wERdTFQBSSwt_41Hwb2m-4" source="3bvs2r6w8-1A-JgL-3PP-0" target="3bvs2r6w8-1A-JgL-3PP-8" edge="1">
          <mxGeometry width="160" relative="1" as="geometry">
            <mxPoint x="210" y="270" as="sourcePoint" />
            <mxPoint x="250" y="190" as="targetPoint" />
          </mxGeometry>
        </mxCell>
        <mxCell id="3bvs2r6w8-1A-JgL-3PP-64" value="After listing and selecting a User, one can edit&lt;br&gt;it&#39;s Security Profile.&lt;br&gt;One does &lt;i&gt;not&lt;/i&gt; Add Roles to a Security Profile -- one Invites Persons to Roles within Groups).&lt;br&gt;One &lt;i&gt;can&lt;/i&gt; add/remove Permissions to Roles within Groups." style="shape=note;whiteSpace=wrap;html=1;size=14;verticalAlign=top;align=left;spacingTop=-6;strokeWidth=1;fillColor=none;fontSize=12;" parent="wERdTFQBSSwt_41Hwb2m-4" vertex="1">
          <mxGeometry x="240" y="100" width="280" height="90" as="geometry" />
        </mxCell>
        <mxCell id="I-xnigJu-aLJeiBsp6X--0" value="" style="fontStyle=1;align=left;verticalAlign=top;childLayout=stackLayout;horizontal=1;horizontalStack=0;resizeParent=1;resizeParentMax=0;resizeLast=0;marginBottom=0;" vertex="1" parent="wERdTFQBSSwt_41Hwb2m-4">
          <mxGeometry x="400" y="200" width="120" height="40" as="geometry" />
        </mxCell>
        <mxCell id="I-xnigJu-aLJeiBsp6X--1" value="&lt;p style=&quot;line-height: 0.9;&quot;&gt;Add/Remove&lt;br&gt;Permissions&lt;/p&gt;" style="html=1;align=left;spacingLeft=4;verticalAlign=middle;strokeColor=none;fillColor=none;fontStyle=1;spacingTop=2;" vertex="1" parent="I-xnigJu-aLJeiBsp6X--0">
          <mxGeometry width="120" height="20" as="geometry" />
        </mxCell>
        <mxCell id="I-xnigJu-aLJeiBsp6X--2" value="" style="shape=ellipse;" vertex="1" parent="I-xnigJu-aLJeiBsp6X--1">
          <mxGeometry x="1" width="20" height="10" relative="1" as="geometry">
            <mxPoint x="-25" y="5" as="offset" />
          </mxGeometry>
        </mxCell>
        <mxCell id="I-xnigJu-aLJeiBsp6X--3" value="" style="line;strokeWidth=1;fillColor=none;align=left;verticalAlign=middle;spacingTop=-1;spacingLeft=3;spacingRight=3;rotatable=0;labelPosition=right;points=[];portConstraint=eastwest;" vertex="1" parent="I-xnigJu-aLJeiBsp6X--0">
          <mxGeometry y="20" width="120" height="8" as="geometry" />
        </mxCell>
        <mxCell id="I-xnigJu-aLJeiBsp6X--4" value="Specific to Groups (not System)" style="html=1;align=left;spacingLeft=4;verticalAlign=top;strokeColor=none;fillColor=none;fontSize=8;spacing=-2;" vertex="1" parent="I-xnigJu-aLJeiBsp6X--0">
          <mxGeometry y="28" width="120" height="12" as="geometry" />
        </mxCell>
        <mxCell id="I-xnigJu-aLJeiBsp6X--5" style="rounded=0;orthogonalLoop=1;jettySize=auto;html=1;exitX=1;exitY=1;exitDx=0;exitDy=0;entryX=0;entryY=0.5;entryDx=0;entryDy=0;" edge="1" parent="wERdTFQBSSwt_41Hwb2m-4" source="3bvs2r6w8-1A-JgL-3PP-8" target="I-xnigJu-aLJeiBsp6X--0">
          <mxGeometry relative="1" as="geometry" />
        </mxCell>
        <mxCell id="gRzEKIzDPof4qPkzU5pQ-1" value="Title/Diagram" parent="vj9NFNpsctyDdZJHX6hg-0" />
        <mxCell id="gRzEKIzDPof4qPkzU5pQ-0" value="&lt;font style=&quot;font-size: 12px&quot;&gt;&lt;span style=&quot;font-size: 12px&quot;&gt;Diagram: Base System Logical Module -&amp;nbsp;&lt;/span&gt;&lt;span style=&quot;font-size: 12px&quot;&gt;Functionality -&amp;nbsp;&lt;/span&gt;User Secuirty Profile Management&lt;/font&gt;" style="text;strokeColor=none;fillColor=none;html=1;fontSize=12;fontStyle=2;verticalAlign=middle;align=left;shadow=0;glass=0;comic=0;opacity=30;fontColor=#808080;" parent="gRzEKIzDPof4qPkzU5pQ-1" vertex="1">
          <mxGeometry x="120" y="250" width="520" height="20" as="geometry" />
        </mxCell>
        <mxCell id="tL2itmjlvSeu3DFbBuZW-0" value="About" parent="vj9NFNpsctyDdZJHX6hg-0" />
      </root>
    </mxGraphModel>
  </diagram>
</mxfile>
